<svg width="88" height="25" viewBox="0 0 88 25" fill="none" xmlns="http://www.w3.org/2000/svg">
<rect width="88" height="25" fill="#5E5E5E"/>
<g id="homepage" clip-path="url(#clip0_114_75519)">
<rect width="320" height="693" transform="translate(-18 -50)" fill="#F4F4F4"/>
<g id="Frame 689" clip-path="url(#clip1_114_75519)">
<g id="Component 63" filter="url(#filter0_d_114_75519)">
<g clip-path="url(#clip2_114_75519)">
<path d="M0 3H284C284 3.55228 283.552 4 283 4H1.00001C0.44772 4 0 3.55228 0 3Z" fill="white"/>
</g>
</g>
<g id="Frame 693">
<g id="Frame 668">
<rect width="320" height="119" transform="translate(-18 -50)" fill="url(#paint0_linear_114_75519)"/>
<g id="Frame 686">
<g id="Group 84">
<path id="Vector" d="M69.8216 21.8936C69.3558 24.2507 64.2497 24.6923 62.1176 24.931C53.3386 25.9096 55.5722 16.2604 55.9544 9.98863C56.2052 8.31776 56.2052 6.30078 56.8502 4.73732C58.3134 1.18672 64.8827 1.14495 67.9404 2.02813C69.3618 2.43988 69.7978 4.77313 68.9557 6.07402C67.5522 8.26405 63.8734 6.35449 62.1296 7.2675C61.6697 7.50619 61.4906 8.19841 61.4368 8.8966C61.3592 9.89912 61.5742 11.2776 62.5775 11.194C63.6584 11.1045 64.3213 11.1344 64.3213 11.1344C64.6259 11.0866 64.9305 11.0866 65.2172 11.1403C67.3552 11.5282 67.391 14.6611 65.259 15.0967C65.0081 15.1445 64.7334 15.1743 64.4229 15.1743L62.6671 14.8222C61.3592 14.6671 60.3977 16.4752 60.965 17.6627C61.4189 18.5936 62.4401 19.1068 63.4554 18.8979C64.8887 18.5996 67.4388 17.9432 68.5735 18.6354C69.4872 19.1963 70.0426 20.8075 69.8276 21.8936H69.8216Z" fill="white"/>
<path id="Vector_2" d="M15.7361 23.2907C14.6014 24.7706 11.8901 24.1381 10.5165 23.3802C8.66517 22.3538 7.7813 20.3488 7.2259 18.475C7.09451 18.0275 6.95118 17.0011 6.45549 16.7982C5.65523 16.47 5.71495 17.6336 5.73884 18.0991C5.79259 19.1195 5.7269 20.0445 5.52385 21.0589C5.26107 22.3598 4.84302 23.9471 3.35597 24.2574C2.32279 24.4782 1.45087 24.0605 0.919354 23.1714C-0.125765 21.4349 0.0235387 19.0658 0.00562239 17.1204C-0.0242381 13.7906 0.0653436 9.42846 0.262423 6.10462C0.322144 5.13791 0.447558 3.82508 1.24185 3.15077C2.07794 2.43468 3.54708 2.48242 4.41901 3.07916C5.3208 3.69977 5.24913 4.89325 5.28496 5.86593C5.33274 7.21456 5.24913 8.57512 5.45218 9.91779C5.56565 10.6697 6.19272 12.0362 6.87951 10.8368C8.37254 8.24095 7.95449 2.51823 12.332 2.82853C14.7806 3.00158 14.0938 5.83012 13.3174 7.2802C12.4216 8.95107 11.8364 10.8905 10.8689 12.4957C9.9432 14.0293 10.3732 15.0975 11.4183 16.5118C12.6725 18.2125 13.8848 18.9047 15.2703 20.0504C16.2079 20.8202 16.4886 22.3061 15.7302 23.2907H15.7361Z" fill="white"/>
<path id="Vector_3" d="M31.6458 12.9731C31.4189 16.5058 28.6359 20.498 25.9962 23.1296C24.7719 24.3529 24.8854 24.7587 24.6226 24.4484C24.0254 23.7502 23.3386 23.1475 22.5503 22.6761C12.5351 16.7087 14.2969 2.10647 24.0911 2.21388C29.8781 2.27953 32.0042 7.28617 31.6458 12.9731ZM26.3904 14.0233C26.5457 10.1326 26.0858 7.66808 23.476 7.66808C21.0274 7.66808 20.8602 12.2391 21.5828 14.5007C21.9053 15.4973 22.5145 17.198 23.6193 17.6097C25.5662 18.3378 26.3307 15.4018 26.3844 14.0233H26.3904Z" fill="white"/>
<path id="Vector_4" d="M54.1785 12.8896C53.7784 15.9389 53.3663 16.9593 51.7479 20.0087C50.3922 22.5567 48.1347 23.5533 44.7904 24.0426C42.8494 24.3291 39.9888 24.2097 38.2748 23.3265C34.0943 21.1604 33.521 15.6465 33.521 12.2093C33.521 10.1744 33.521 12.5494 33.521 9.49413C33.521 7.1191 36.5429 6.5522 37.9762 7.79939C39.1706 8.83772 40.0425 14.2143 41.6251 16.3447C42.4553 17.4666 44.1155 17.5441 45.0531 16.5058C46.8448 14.5246 48.2064 9.58364 49.7173 8.13953C52.2137 5.75257 54.5965 9.69702 54.1725 12.8896H54.1785Z" fill="#1B4D3E"/>
<path id="Vector_5" d="M35.6589 6.10464C35.0199 6.10464 34.578 5.59144 34.8049 5.10809C36.2143 2.12439 39.8275 0 44.0557 0C48.284 0 51.9031 2.12439 53.3065 5.10809C53.5334 5.58548 53.0915 6.10464 52.4525 6.10464C52.1001 6.10464 51.8911 5.88385 51.6283 5.6929C48.1048 3.05531 47.3463 2.13633 44.0557 2.13633C40.7651 2.13633 38.7943 3.66398 36.4831 5.6929C36.2442 5.90176 36.0113 6.10464 35.6589 6.10464Z" fill="#1B4D3E"/>
<path id="Vector_6" d="M87.3656 22.2464C86.9117 23.6846 86.0398 24.4305 84.5886 24.2336C83.3106 24.0605 82.4386 23.2967 81.8116 22.145C81.1367 20.9038 80.7844 19.5134 80.0737 18.2901C79.6318 17.5262 77.6729 15.1691 77.2967 17.389C76.9742 19.3164 78.4672 21.9839 76.9324 23.5593C76.1918 24.3171 75.1825 24.4365 74.2509 24.162C70.5124 23.058 70.9841 17.7172 71.1932 14.7275C71.444 11.1948 70.7751 6.50445 73.6835 3.84896C76.1441 1.59925 80.3126 1.89165 83.0538 3.43721C85.5382 4.83954 87.2462 8.68851 85.4307 11.2605C84.4274 12.6807 82.8388 13.0925 84.3378 14.9662C85.3829 16.2671 86.8938 18.1767 87.3656 20.0683C87.5508 20.8083 87.5747 21.5482 87.3537 22.2464H87.3656ZM77.7207 7.84114C76.7592 8.59303 76.365 12.5076 78.1865 12.436C79.1898 12.4002 79.9423 10.6399 80.0379 9.84022C80.1872 8.50353 79.2973 6.61186 77.7267 7.84114H77.7207Z" fill="white"/>
</g>
</g>
</g>
</g>
</g>
</g>
<defs>
<filter id="filter0_d_114_75519" x="-15" y="-7" width="314" height="31" filterUnits="userSpaceOnUse" color-interpolation-filters="sRGB">
<feFlood flood-opacity="0" result="BackgroundImageFix"/>
<feColorMatrix in="SourceAlpha" type="matrix" values="0 0 0 0 0 0 0 0 0 0 0 0 0 0 0 0 0 0 127 0" result="hardAlpha"/>
<feOffset dy="5"/>
<feGaussianBlur stdDeviation="7.5"/>
<feComposite in2="hardAlpha" operator="out"/>
<feColorMatrix type="matrix" values="0 0 0 0 0 0 0 0 0 0 0 0 0 0 0 0 0 0 0.15 0"/>
<feBlend mode="normal" in2="BackgroundImageFix" result="effect1_dropShadow_114_75519"/>
<feBlend mode="normal" in="SourceGraphic" in2="effect1_dropShadow_114_75519" result="shape"/>
</filter>
<linearGradient id="paint0_linear_114_75519" x1="160" y1="-199.5" x2="160" y2="119" gradientUnits="userSpaceOnUse">
<stop stop-color="#ADE283"/>
<stop offset="1" stop-color="#4EA04C"/>
</linearGradient>
<clipPath id="clip0_114_75519">
<rect width="320" height="693" fill="white" transform="translate(-18 -50)"/>
</clipPath>
<clipPath id="clip1_114_75519">
<rect width="320" height="693" fill="white" transform="translate(-18 -50)"/>
</clipPath>
<clipPath id="clip2_114_75519">
<path d="M0 3H284C284 3.55228 283.552 4 283 4H1.00001C0.44772 4 0 3.55228 0 3Z" fill="white"/>
</clipPath>
</defs>
</svg>
